<svg xmlns="http://www.w3.org/2000/svg" width="37.327" height="94.4"><g data-name="グループ 109" fill="#302833"><g data-name="グループ 107"><path data-name="パス 343" d="M34.788 16.938a20.4 20.4 0 0 0-2.2-3.759 49.07 49.07 0 0 1-10.221 11.523l.118-11.63-3.169-1.968-.05 23.008c0 4.823-.774 4.6 8.226 4.6 2.575 0 4.66-.008 6.233-.115a15.931 15.931 0 0 0 2.309-.276c1.085-.177 1.347-.653 1.281-.984s-.346-.708-.432-1.036l-2.533-8.467c-.018-.064-.055-.025-.063.037-.19 1.685-.492 7.868-1.411 9.313-.5.776-1.65.929-5.32.929a16.911 16.911 0 0 1-4.17-.3c-.6-.177-1.073-.708-1.122-2.437l.092-9.922a63.464 63.464 0 0 0 12.432-8.516Z"/><path data-name="パス 344" d="M23.181 4.416h-7.6V1.838L12.504 0v4.416H4.516l.377.688h7.623v4.412l3.058-1.568-.013-2.844h7.525a40.341 40.341 0 0 1-1.023 4.567c-.012.042-.015.086.035.041a29.42 29.42 0 0 0 3.5-4.607h8.856l.491-.676-2.6-1.614-1.551 1.6h-4.8a9.02 9.02 0 0 0 1.038-2.545A28.238 28.238 0 0 0 23.288.089a21.435 21.435 0 0 1-.107 4.327Z"/><path data-name="パス 345" d="M.011 29.364c-.01.014-.018.029 0 .028 0 0 3.173-1.556 8.783-7.394l.122 17.316 3.145-1.821-.039-19.171a33.244 33.244 0 0 0 2.714-3.979 36.375 36.375 0 0 0-2.82-3.566C10.511 14.863 6.557 22.346.011 29.364Z"/></g><g data-name="グループ 108"><path data-name="パス 346" d="M28.707 69.822a12.355 12.355 0 0 0 1.891-.15c.516-.113.636-.249.726-.367 1.1-1.672.982-7.5.982-7.5 0-.047.022-.049.041 0 0 0 1.246 3.456 2.606 6.312a2.009 2.009 0 0 1 .33.678c.018.425-.051.575-.316.732-.9.534-2.515.807-6.049.83-4.614.03-6.783-.244-7.679-1.274a4.188 4.188 0 0 1-.708-2.587v-2.751c-5.406 4.807-15.883 9.484-15.883 9.484a31.916 31.916 0 0 1-3.36-3.458c1.133-.183 3.578-.666 3.578-.666l.033-9.843 3.083 1.969v7.126a28.255 28.255 0 0 0 2.884-.841l.04-12.48 3.082 1.969v3.014h1.428l1.551-1.612 2.6 1.615-.492.674h-5.087v5.706a55.817 55.817 0 0 0 4.584-2.035c.872-.446 1.658-.9 1.959-1.081v-8.25l3.213 2.3v5.776c3.1-2.155 7.094-7.4 7.094-7.4a15.644 15.644 0 0 1 2.342 3.117 75.881 75.881 0 0 1-9.436 4.827v4.428c.01.563.15 1.528 2.009 1.686 1.012.092 2.954.052 2.954.052Z"/><path data-name="パス 347" d="M17.686 66.12h.009Z"/><path data-name="パス 348" d="M1.6 94.35s8.029-1.96 12.659-7.469l-2.84-2.811C8.17 89.657 1.6 94.35 1.6 94.35Z"/><path data-name="パス 349" d="M31.977 93.73a26.679 26.679 0 0 0 1.9-4.115 33.9 33.9 0 0 0-10.061-5.335 97.618 97.618 0 0 1 8.161 9.45Z"/><path data-name="パス 350" d="m28.766 79.188-12.574.67a60.582 60.582 0 0 0 9.345-5.541 31.306 31.306 0 0 0-2.427-2.8 17.749 17.749 0 0 1-3.769 4.627 13.416 13.416 0 0 0-5.046-2.253 20.115 20.115 0 0 0 5.87-2.985 19.374 19.374 0 0 0-2.417-2.94c-2.151 4.588-3.814 5.834-3.814 5.834a11.277 11.277 0 0 0-2.977-.281s2.462.771 6.288 4.422a37.894 37.894 0 0 1-2.81 2.008l-10.359.552c.505.941 1.346 2.5 1.877 3.442 0 0 6.282-.975 11.511-1.994l.038 12.449 3.166-1.969-.162-11.013 8.812-1.544a39.564 39.564 0 0 1 3.451 4.982 23.2 23.2 0 0 0 1.755-4.13 27.923 27.923 0 0 0-8.376-4.367 27.51 27.51 0 0 1 2.618 2.831Z"/></g></g></svg>